# xmcd
#
# Track frame offsets: 
#        150
#        23625
#        40200
#        55875
#        72375
#        88650
#        112125
#        127575
#        155025
#        177150
#        204300
#        221175
#        236550
#
# Disc length: 3484 seconds
#
# Revision: 1
# Processed by: cddbd v1.5.2PL0 Copyright (c) Steve Scherf et al.
# Submitted via: ExactAudioCopy v0.95b4
#
DISCID=b50d9a0d
DTITLE=Various Artist - Погружение в ощущение vol.5
DYEAR=1998
DGENRE=House
TTITLE0=Miquel "O" - Danger (transexual mix)
TTITLE1=Technotronic - Get up (the sequel) (remix '98)
TTITLE2=666 - Paradoxx (new radio version)
TTITLE3=Sequential One - Inspiration vibes (airplay mix)
TTITLE4=Aerosol - Your woman (radio mix)
TTITLE5=Dj Red 5 - Da bass (klubbirds remix)
TTITLE6=Kadoc - Clap your hands (radio ?dit)
TTITLE7=Junkfood Junkies feat. MC Quest - Work it (brotherhood mix)
TTITLE8=K.K. System - Fax u... (clubb remix)
TTITLE9=Superbeat - Feel the bass (club mix)
TTITLE10=Pat Jam - Master and slave (radio version)
TTITLE11=Zycro meets Dj Silencer - Chek it out (tdmg radio edit)
TTITLE12=Modular 101 - Jump all around (Btuce byron's total club)
EXTD=
EXTT0=
EXTT1=
EXTT2=
EXTT3=
EXTT4=
EXTT5=
EXTT6=
EXTT7=
EXTT8=
EXTT9=
EXTT10=
EXTT11=
EXTT12=
PLAYORDER=
